<?xml version="1.0" encoding="UTF-8"?>
<svg xmlns="http://www.w3.org/2000/svg" viewBox="0 0 398.02 223.45">
  <g id="background"/>
  <g id="photo"/>
  <g id="illustration"/>
  <g id="typo">
    <g>
      <g>
        <path d="M307.17,107.79c-18.55,0-33.64-15.09-33.64-33.63,0-5.88,1.64-11.7,4.74-16.86l23.04-43.3h12.37l22.61,43.14c3.11,5.13,4.77,11.03,4.77,17.02,0,18.54-15.2,33.63-33.88,33.63m-18.8-49.97c-.81,1.46-3,5.42-3.37,6.21-1.5,3.2-2.25,6.61-2.25,10.12,0,13.4,10.96,24.3,24.42,24.3s24.67-10.67,24.67-24.3c0-3.67-.83-7.23-2.48-10.57-.4-.81-2.85-5.29-2.93-5.45l-17.89-34.12h-1.94l-18.24,33.81Z"/>
        <path d="M339.57,107.66c-21.44,0-38.89-17.28-38.89-38.52s17.45-38.51,38.89-38.51,38.89,17.28,38.89,38.51-17.45,38.52-38.89,38.52m0-67.82c-16.36,0-29.67,13.14-29.67,29.3s13.58,29.3,29.67,29.3,29.68-13.42,29.68-29.3-13.31-29.3-29.68-29.3"/>
      </g>
      <polygon points="177.98 24 164.11 24 164.11 64.04 154.82 64.04 154.82 24 140.95 24 140.95 15.42 177.98 15.42 177.98 24"/>
      <polygon points="184.75 14 184.75 64.04 194.04 64.04 194.04 35.8 209.06 35.8 209.06 64.04 218.35 64.04 218.35 27.22 194.04 27.22 194.04 14 184.75 14"/>
      <path d="M234.13,42.24h13.66c-.28-5.01-2.29-7.15-6.86-7.15s-6.51,2.36-6.8,7.15m22.95,6.79h-22.73c.64,4.5,2.86,7.15,10.01,7.15,2.15,0,5.36,0,10.3-1.14v8.43c-5.57,1.29-8.29,1.29-11.01,1.29-16.51,0-18.87-11.65-18.87-19.08,0-10.94,4.43-19.16,16.3-19.16s16.01,7.65,16.01,18.37v4.15Z"/>
      <rect x="271.03" y="122.1" width="109.93" height="8.93"/>
      <g>
        <path d="M61.31,105.37v25.66h-9.29v-6.79h-1.14c-1.29,2.79-4.43,7.51-12.94,7.51-14.16,0-20.87-11.08-20.87-25.02s6.72-25.02,22.16-25.02c12.01,0,19.59,7.08,20.3,17.09h-9.22c-.93-5.22-4.07-8.51-11.08-8.51-8.72,0-12.87,4.22-12.87,16.44s4.5,16.44,13.73,16.44c6.86,0,10.93-4.36,11.94-10.29h-16.58v-7.51h25.88Z"/>
        <path d="M90.82,118.88c0-2.86-1.86-5.15-6.72-5.15s-6.72,2.29-6.72,5.15,1.86,5.15,6.72,5.15,6.72-2.29,6.72-5.15m13.94,3.22v8.94h-13.94v-3.58c-1.79,2.58-4.58,4.29-9.94,4.29-8.72,0-12.8-6.29-12.8-12.87s4.07-12.87,12.8-12.87c5.36,0,8.15,1.64,9.94,4.29v-7.86h-18.59v-8.22h27.88v27.88h4.65Z"/>
      </g>
      <polygon points="134.55 102.79 120.82 102.79 120.82 131.03 111.53 131.03 111.53 94.21 134.55 94.21 134.55 102.79"/>
      <g>
        <path d="M164.78,112.58c0-7.29-2.58-10.5-8.51-10.5s-8.51,3.22-8.51,10.5,2.58,10.58,8.51,10.58,8.51-3.22,8.51-10.58m9.29-31.59v50.04h-9.29v-4.5c-2.43,3.64-6.01,5.22-10.44,5.22-11.08,0-15.87-8.65-15.87-19.16s4.79-19.08,15.87-19.08c4.43,0,8.01,1.57,10.44,5.15v-17.66h9.29Z"/>
        <path d="M189.85,109.23h13.66c-.28-5.01-2.29-7.15-6.86-7.15s-6.5,2.36-6.79,7.15m22.95,6.79h-22.73c.64,4.5,2.86,7.15,10.01,7.15,2.15,0,5.36,0,10.3-1.14v8.43c-5.57,1.29-8.29,1.29-11.01,1.29-16.51,0-18.87-11.65-18.87-19.08,0-10.94,4.43-19.16,16.3-19.16s16.01,7.65,16.01,18.37v4.15Z"/>
      </g>
      <polygon points="253.17 131.03 243.88 131.03 243.88 102.79 228.87 102.79 228.87 131.03 219.57 131.03 219.57 94.21 253.17 94.21 253.17 131.03"/>
      <path d="M87.9,182.79c0-5.15-2.07-6.22-7.08-6.22h-9.58v12.15h9.58c5.01,0,7.08-1.07,7.08-5.93m-16.66-14.8h9.22c4.29,0,6.01-1.07,6.01-5.22,0-3.72-1.72-4.79-6.01-4.79h-9.22v10.01Zm25.95,16.09c0,7.29-3.57,13.94-16.37,13.94h-18.87v-48.61h18.87c10.87,0,14.94,5.65,14.94,11.87,0,5.01-2.57,9.72-9.72,10.22v1.14c8.36,.5,11.15,5.15,11.15,11.44"/>
      <polygon points="127.34 169.78 113.61 169.78 113.61 198.02 104.32 198.02 104.32 161.2 127.34 161.2 127.34 169.78"/>
      <path d="M140.63,176.22h13.65c-.28-5.01-2.29-7.15-6.86-7.15s-6.5,2.36-6.79,7.15m22.95,6.79h-22.73c.64,4.5,2.86,7.15,10.01,7.15,2.15,0,5.36,0,10.3-1.14v8.43c-5.57,1.29-8.29,1.29-11.01,1.29-16.51,0-18.87-11.65-18.87-19.08,0-10.94,4.43-19.16,16.3-19.16s16.01,7.65,16.01,18.37v4.15Z"/>
      <polygon points="229.11 161.2 220.17 198.02 204.45 198.02 198.52 170.71 197.37 170.71 191.51 198.02 175.78 198.02 166.78 161.2 176.36 161.2 182.86 188.51 184 188.51 190.01 161.2 205.88 161.2 211.88 188.51 213.03 188.51 219.53 161.2 229.11 161.2"/>
      <path d="M241.31,176.22h13.66c-.29-5.01-2.29-7.15-6.86-7.15s-6.5,2.36-6.79,7.15m22.95,6.79h-22.73c.64,4.5,2.86,7.15,10.01,7.15,2.15,0,5.36,0,10.3-1.14v8.43c-5.57,1.29-8.29,1.29-11.01,1.29-16.51,0-18.87-11.65-18.87-19.08,0-10.94,4.43-19.16,16.3-19.16s16.01,7.65,16.01,18.37v4.15Z"/>
      <polygon points="294.05 169.78 280.32 169.78 280.32 198.02 271.03 198.02 271.03 161.2 294.05 161.2 294.05 169.78"/>
      <path d="M336.07,161.2v48.25h-30.02v-8.58h20.73v-9.65c-2.15,2.36-5.65,3.93-9.94,3.93-11.22,0-15.66-6.65-15.66-16.44v-17.51h9.29v17.16c0,5.72,2.58,8.22,8.15,8.22s8.15-2.5,8.15-8.22v-17.16h9.29Z"/>
    </g>
  </g>
</svg>